<svg width="60" height="58" viewBox="0 0 60 58" fill="none" xmlns="http://www.w3.org/2000/svg">
<g clip-path="url(#clip0)" filter="url(#filter0_d)">
<path d="M43.4063 28.6243C42.7567 28.6243 42.2535 29.1251 42.2535 29.7779V45.5365H34.0787V39.1016C34.0787 38.498 33.5756 37.9703 32.9674 37.9703H27.0566C26.4064 37.9703 25.8827 38.4979 25.8827 39.1016V45.5365H17.7284V30.3011C17.7284 29.6929 17.2258 29.1877 16.5756 29.1877C15.9679 29.1877 15.4648 29.6929 15.4648 30.3011V46.6902C15.4648 47.2984 15.9679 47.8037 16.5756 47.8037H27.0566C27.6643 47.8037 28.1674 47.2984 28.1674 46.6902V40.2553H31.8145V46.6902C31.8145 47.2984 32.3176 47.8037 32.9674 47.8037H43.4063C44.0141 47.8037 44.5171 47.2984 44.5171 46.6902V29.778C44.5171 29.1252 44.0141 28.6243 43.4063 28.6243Z" fill="#CC0000"/>
<path d="M49.6735 29.5231L40.5765 20.3873V14.1581C40.5765 13.5097 40.0524 13.0089 39.4026 13.0089C38.7945 13.0089 38.2915 13.5097 38.2915 14.1581V18.1022L30.7874 10.5538C30.5574 10.3213 30.2843 10.196 30.012 10.196C29.6976 10.196 29.4248 10.3257 29.1945 10.5538L10.3504 29.3979C9.89829 29.8495 9.86836 30.574 10.3504 30.9898C10.7694 31.4728 11.4912 31.4415 11.9433 30.9898L30.012 12.9641L48.0386 31.1598C48.2264 31.3476 48.4997 31.4549 48.8561 31.4549C49.1704 31.4549 49.4427 31.3476 49.6735 31.1598C50.0929 30.7394 50.1242 29.9792 49.6735 29.5231Z" fill="#CC0000"/>
</g>
<defs>
<filter id="filter0_d" x="0" y="-1" width="59.9999" height="60" filterUnits="userSpaceOnUse" color-interpolation-filters="sRGB">
<feFlood flood-opacity="0" result="BackgroundImageFix"/>
<feColorMatrix in="SourceAlpha" type="matrix" values="0 0 0 0 0 0 0 0 0 0 0 0 0 0 0 0 0 0 127 0"/>
<feOffset/>
<feGaussianBlur stdDeviation="5"/>
<feColorMatrix type="matrix" values="0 0 0 0 0.8 0 0 0 0 0 0 0 0 0 0 0 0 0 1 0"/>
<feBlend mode="normal" in2="BackgroundImageFix" result="effect1_dropShadow"/>
<feBlend mode="normal" in="SourceGraphic" in2="effect1_dropShadow" result="shape"/>
</filter>
<clipPath id="clip0">
<rect width="39.9999" height="40" fill="white" transform="translate(10 9)"/>
</clipPath>
</defs>
</svg>
