<?xml version="1.0" encoding="utf-8"?>
<!-- Generator: Adobe Illustrator 23.0.0, SVG Export Plug-In . SVG Version: 6.00 Build 0)  -->
<svg version="1.1" id="Layer_1" xmlns="http://www.w3.org/2000/svg" xmlns:xlink="http://www.w3.org/1999/xlink" x="0px" y="0px"
	 viewBox="0 0 84 84" style="enable-background:new 0 0 84 84;" xml:space="preserve">
<style type="text/css">
	.st0{fill:#E84A47;}
</style>
<path class="st0" d="M68.89,20.23L46.59,7.35c-1.42-0.82-3.26-1.27-5.18-1.27c-1.92,0-3.76,0.45-5.18,1.27L13.92,20.23
	c-2.91,1.68-5.18,5.62-5.18,8.97v25.76c0,3.35,2.28,7.3,5.18,8.98l22.31,12.88c1.42,0.82,3.26,1.27,5.18,1.27
	c1.93,0,3.77-0.45,5.18-1.27l22.31-12.88c2.9-1.68,5.18-5.62,5.18-8.98V29.2C74.08,25.85,71.8,21.91,68.89,20.23 M44.34,55.36
	L44.34,55.36L44.34,55.36c-1.54,0.88-4.33,0.88-5.86,0L15.49,42.08l22.98-13.27l0,0c1.53-0.88,4.33-0.88,5.86,0l22.98,13.27
	L44.34,55.36z M69.58,29.2v8.98L45.91,24.52l7.78-4.49c1.52-0.87,4.26-0.89,5.81-0.03l7.15,4.13C68.18,25.01,69.58,27.43,69.58,29.2
	 M16.17,24.13l22.31-12.88c0.73-0.42,1.8-0.66,2.93-0.66s2.2,0.24,2.93,0.66l7.78,4.49L13.24,38.19V29.2
	C13.24,27.43,14.63,25.01,16.17,24.13 M13.24,54.96v-8.98L36.9,59.65l-7.78,4.49c-1.51,0.87-4.26,0.88-5.81,0.03l-7.15-4.13
	C14.63,59.15,13.24,56.74,13.24,54.96 M66.64,60.04L44.34,72.92c-0.73,0.42-1.8,0.67-2.93,0.67s-2.2-0.24-2.93-0.67l-7.78-4.49
	l38.88-22.45v8.99C69.58,56.74,68.18,59.15,66.64,60.04"/>
</svg>
