<?xml version="1.0" encoding="utf-8"?>
<!-- Generator: Adobe Illustrator 23.0.0, SVG Export Plug-In . SVG Version: 6.00 Build 0)  -->
<svg version="1.1" id="Layer_1" xmlns="http://www.w3.org/2000/svg" xmlns:xlink="http://www.w3.org/1999/xlink" x="0px" y="0px"
	 viewBox="0 0 578.16 578.16" style="enable-background:new 0 0 578.16 578.16;" xml:space="preserve">
<style type="text/css">
	.st0{fill:#010101;}
	.st1{fill:#19331A;}
</style>
<g>
	<g>
		<path class="st0" d="M37.76,60.93l145.36-1c45.91-0.32,81.94,0.36,108.08,2.02c26.14,1.67,50.29,5.24,72.43,10.71
			c22.14,5.47,41.66,14.4,58.57,26.77c11.42,8.38,14.25,14.25,8.51,17.62c-5.74,3.37-22.49,6.05-50.25,8.02
			c36.36,1.72,63.63,4.8,81.8,9.24c18.17,4.43,33.62,11.31,46.36,20.64l18.14,13.28c13.22,9.69,18.69,16.89,16.41,21.62
			c-2.29,4.72-11.73,8-28.31,9.85c-16.59,1.84-54.2,2.96-112.83,3.36l-168.63,1.15L37.76,60.93z M216.81,84.39l43.47,31.84
			c6.18-0.1,11.02-0.17,14.5-0.19c14.39-0.1,22.32-1.06,23.8-2.89c1.5-1.82-3.56-6.98-15.15-15.47c-6.11-4.48-12.03-7.61-17.73-9.39
			c-5.7-1.78-11.49-2.88-17.35-3.32C242.48,84.55,231.97,84.35,216.81,84.39z M290.83,138.61l54.82,40.15
			c20.41-0.31,32.45-1.23,36.11-2.75c3.67-1.52,1.55-5.17-6.36-10.96l-18.27-13.38c-8.39-6.14-16.02-9.85-22.9-11.11
			C327.35,139.29,312.89,138.64,290.83,138.61z"/>
	</g>
	<g>
		<path class="st0" d="M551.74,226.9v293.25h-91.77l-0.19-197.97l-36.51,197.97h-64.43l-38.46-193.67l-0.19,193.67h-91.76V226.9
			h135.4c3.78,17.69,7.91,38.48,12.4,62.39l14.84,74.55l24.11-136.94H551.74z"/>
	</g>
	<polygon class="st1" points="25.07,87.85 201.45,218.44 201.45,516.87 23.81,367.65 	"/>
</g>
</svg>
