<?xml version="1.0" encoding="utf-8"?>
<!-- Generator: Adobe Illustrator 23.0.0, SVG Export Plug-In . SVG Version: 6.00 Build 0)  -->
<svg version="1.1" id="Layer_1" xmlns="http://www.w3.org/2000/svg" xmlns:xlink="http://www.w3.org/1999/xlink" x="0px" y="0px"
	 viewBox="0 0 98.02 98.02" style="enable-background:new 0 0 98.02 98.02;" xml:space="preserve">
<style type="text/css">
	.st0{clip-path:url(#SVGID_2_);}
	.st1{fill:url(#SVGID_3_);}
</style>
<g>
	<defs>
		<path id="SVGID_1_" d="M60.86,27.41c-11.75,13.18-14.45,10.36-16.35,9.83l0,0c-2.87-0.8-5.96-7.35,2.05-9.25l0,0
			c9.94-2.35,6.67-11.48,6.67-11.48l0,0c-2.33,6.39-8.95,7.22-12.2,7.59l0,0c-4.79,0.54-10.07,2.46-14.43,4.62l0,0
			c-3.9,1.93-7.57,4.79-10.66,8.24l0,0C7.84,46.02,3.73,59.1,9.94,69.87l0,0c0.82,1.41,1.8,2.71,2.93,3.89l0,0l-0.02-0.04
			c3.28,3.01,6.86,6.71,9.53-3.18l0,0l2.29-9.62h-6.34l1.18-4.72h6.34l0.74-2.97c1.46-5.87,4.68-8.49,10.07-8.49l0,0h16.86
			l-0.4,5.39c-1.35-0.27-2.6-0.4-3.61-0.4l0,0h-8.29c-1.55,0-2.17,0.61-2.59,2.29l0,0l-1.04,4.18h11.19l-1.18,4.72H36.4l-2.53,10.44
			c-2.57,11.95,2.43,11.48,6.58,11l0,0c10.94-1.56,22.4-8.38,27.87-18.17l0,0c8.17-14.63,14.02-16.45,14.02-16.45l0,0
			c0,0-4.76-1.66-8.62,1.31l0,0c-2.76,2.12-6.99,1.44-7.71-2.01l0,0c-0.67-3.23,3.63-4.58,5.96-5.16l0,0
			c9.77-2.41,11.71-9.07,11.71-9.07l0,0c-12.85,5.53-9.44-5.59-9.44-5.59l0,0c5.62-11.59,19.22-7.68,19.22-7.68l0,0
			c-2.81-2.56-6.51-3.94-10.66-3.94l0,0C76.06,15.62,68.13,19.26,60.86,27.41"/>
	</defs>
	<clipPath id="SVGID_2_">
		<use xlink:href="#SVGID_1_"  style="overflow:visible;"/>
	</clipPath>
	<g class="st0">
		
			<linearGradient id="SVGID_3_" gradientUnits="userSpaceOnUse" x1="-103.9683" y1="196.0318" x2="-102.9683" y2="196.0318" gradientTransform="matrix(35.273 -48.2305 -48.2305 -35.273 13149.2559 1971.7997)">
			<stop  offset="0" style="stop-color:#8BC13F"/>
			<stop  offset="0.514" style="stop-color:#9EC93A"/>
			<stop  offset="1" style="stop-color:#B3D334"/>
		</linearGradient>
		<polygon class="st1" points="-28.87,59.72 76.95,-84.97 221.64,20.85 115.82,165.54 		"/>
	</g>
</g>
</svg>
