<?xml version="1.0" encoding="utf-8"?>
<!-- Generator: Adobe Illustrator 22.1.0, SVG Export Plug-In . SVG Version: 6.00 Build 0)  -->
<svg version="1.1" id="Layer_1" xmlns="http://www.w3.org/2000/svg" xmlns:xlink="http://www.w3.org/1999/xlink" x="0px" y="0px"
	 viewBox="0 0 64 72" style="enable-background:new 0 0 64 72;" xml:space="preserve">
<style type="text/css">
	.st0{fill:#CC0000;}
</style>
<path class="st0" d="M53.9,57.5c5.4-2.2,8.9-7.1,8.9-13.2c0-8.5-6.7-14.5-15.9-14.5H27.4l6.8,9.6h11.7c3.6,0,6.2,2,6.2,4.9
	s-2.6,4.9-6.2,4.9H27.3V72h10.4V58.8h5.1L52.2,72H64L53.9,57.5z"/>
<path class="st0" d="M14.6,61.6h-0.2c-0.1,0-0.1,0-0.2,0c-0.4,0-0.7,0-1.1-0.1c-2.5-0.3-4.8-0.8-6.4-2.7s-2.3-7.4-2.2-9.9
	s1.1-4.8,2.9-6.6c1.7-1.8,4.1-2.8,6.6-2.9c0.2,0,0.3,0,0.5,0H30l-7-9.6c-3.5,0-5.7,0-10,0C5.2,29.8,0.5,33-2.7,38
	c-3.7,5.9-4.4,16.5-1.9,22.9C-1.4,69.2,5.4,72,12.9,72c4.8,0,12,0,12,0l0-10.3C24.9,61.7,16.6,61.6,14.6,61.6z"/>
<path class="st0" d="M-209,15.4c5.4-2.2,8.9-7.1,8.9-13.2c0-8.5-6.7-14.5-15.9-14.5h-19.5l6.8,9.6h11.7c3.6,0,6.2,2,6.2,4.9
	s-2.6,4.9-6.2,4.9h-18.5v22.8h10.4V16.7h5.1l9.2,13.2h11.8L-209,15.4z"/>
<path class="st0" d="M-242.3-12.2h-0.2c-0.1,0-0.1,0-0.2,0c-0.4,0-0.7,0-1.1-0.1c-2.5-0.3-4.7-1.6-6.3-3.5s-2.4-4.3-2.3-6.8
	c0.1-2.5,1.1-4.8,2.9-6.6c1.7-1.8,4.1-2.8,6.6-2.9c0.2,0,0.3,0,0.5,0h15.5l-7-9.6c-3.5,0-5.7,0-10,0c-7.8,0-12.5,3.2-15.6,8.2
	c-3.7,5.8-4.3,13.4-1.8,19.8c3.2,8.3,10,11.1,17.5,11.1c4.8,0,8.8,0,13.3,0c-1.7-2.4-7.1-9.6-7.1-9.6S-240.2-12.2-242.3-12.2z"/>
</svg>
